<?xml version="1.0" encoding="UTF-8"?> <svg xmlns="http://www.w3.org/2000/svg" width="355" height="257" viewBox="0 0 355 257" fill="none"><rect x="0.5" y="0.5" width="354" height="256" rx="5.5" stroke="#D7D7D7"></rect><path d="M170.222 76.3728L171 77.1506L171.778 76.3728L192.358 55.7928C193.293 54.8574 194.837 54.8574 195.772 55.7928C196.708 56.7282 196.708 58.2368 195.772 59.1722L172.707 82.2372C171.772 83.1726 170.263 83.1726 169.328 82.2372L160.263 73.1722C159.327 72.2368 159.327 70.7282 160.263 69.7928C161.198 68.8574 162.707 68.8574 163.642 69.7928L170.222 76.3728ZM144.1 68C144.1 49.2875 159.288 34.1 178 34.1C196.712 34.1 211.9 49.2875 211.9 68C211.9 86.7125 196.712 101.9 178 101.9C159.288 101.9 144.1 86.7125 144.1 68ZM148.9 68C148.9 84.0425 161.957 97.1 178 97.1C194.043 97.1 207.1 84.0425 207.1 68C207.1 51.9575 194.043 38.9 178 38.9C161.957 38.9 148.9 51.9575 148.9 68Z" fill="#A6DB8A" stroke="white" stroke-width="2.2"></path><path d="M80.0939 135.216V140.352H86.5979V142.932H80.0939V150H76.8539V132.648H87.7979V135.216H80.0939ZM94.3495 137.496C95.2615 137.496 96.0895 137.644 96.8335 137.94C97.5855 138.236 98.2255 138.656 98.7535 139.2C99.2895 139.744 99.7015 140.408 99.9895 141.192C100.278 141.976 100.422 142.852 100.422 143.82C100.422 144.796 100.278 145.676 99.9895 146.46C99.7015 147.244 99.2895 147.912 98.7535 148.464C98.2255 149.016 97.5855 149.44 96.8335 149.736C96.0895 150.032 95.2615 150.18 94.3495 150.18C93.4295 150.18 92.5935 150.032 91.8415 149.736C91.0895 149.44 90.4455 149.016 89.9095 148.464C89.3815 147.912 88.9695 147.244 88.6735 146.46C88.3855 145.676 88.2415 144.796 88.2415 143.82C88.2415 142.852 88.3855 141.976 88.6735 141.192C88.9695 140.408 89.3815 139.744 89.9095 139.2C90.4455 138.656 91.0895 138.236 91.8415 137.94C92.5935 137.644 93.4295 137.496 94.3495 137.496ZM94.3495 147.9C95.3735 147.9 96.1295 147.556 96.6175 146.868C97.1135 146.18 97.3615 145.172 97.3615 143.844C97.3615 142.516 97.1135 141.504 96.6175 140.808C96.1295 140.112 95.3735 139.764 94.3495 139.764C93.3095 139.764 92.5375 140.116 92.0335 140.82C91.5375 141.516 91.2895 142.524 91.2895 143.844C91.2895 145.164 91.5375 146.172 92.0335 146.868C92.5375 147.556 93.3095 147.9 94.3495 147.9ZM105.479 139.824C105.863 139.088 106.319 138.512 106.847 138.096C107.375 137.672 107.999 137.46 108.719 137.46C109.287 137.46 109.743 137.584 110.087 137.832L109.895 140.052C109.855 140.196 109.795 140.3 109.715 140.364C109.643 140.42 109.543 140.448 109.415 140.448C109.295 140.448 109.115 140.428 108.875 140.388C108.643 140.348 108.415 140.328 108.191 140.328C107.863 140.328 107.571 140.376 107.315 140.472C107.059 140.568 106.827 140.708 106.619 140.892C106.419 141.068 106.239 141.284 106.079 141.54C105.927 141.796 105.783 142.088 105.647 142.416V150H102.683V137.688H104.423C104.727 137.688 104.939 137.744 105.059 137.856C105.179 137.96 105.259 138.152 105.299 138.432L105.479 139.824ZM111.636 150V137.688H113.448C113.832 137.688 114.084 137.868 114.204 138.228L114.396 139.14C114.612 138.9 114.836 138.68 115.068 138.48C115.308 138.28 115.56 138.108 115.824 137.964C116.096 137.82 116.384 137.708 116.688 137.628C117 137.54 117.34 137.496 117.708 137.496C118.484 137.496 119.12 137.708 119.616 138.132C120.12 138.548 120.496 139.104 120.744 139.8C120.936 139.392 121.176 139.044 121.464 138.756C121.752 138.46 122.068 138.22 122.412 138.036C122.756 137.852 123.12 137.716 123.504 137.628C123.896 137.54 124.288 137.496 124.68 137.496C125.36 137.496 125.964 137.6 126.492 137.808C127.02 138.016 127.464 138.32 127.824 138.72C128.184 139.12 128.456 139.608 128.64 140.184C128.832 140.76 128.928 141.42 128.928 142.164V150H125.964V142.164C125.964 141.38 125.792 140.792 125.448 140.4C125.104 140 124.6 139.8 123.936 139.8C123.632 139.8 123.348 139.852 123.084 139.956C122.828 140.06 122.6 140.212 122.4 140.412C122.208 140.604 122.056 140.848 121.944 141.144C121.832 141.44 121.776 141.78 121.776 142.164V150H118.8V142.164C118.8 141.34 118.632 140.74 118.296 140.364C117.968 139.988 117.484 139.8 116.844 139.8C116.412 139.8 116.008 139.908 115.632 140.124C115.264 140.332 114.92 140.62 114.6 140.988V150H111.636ZM142.353 137.688V150H140.541C140.149 150 139.901 149.82 139.797 149.46L139.593 148.476C139.089 148.988 138.533 149.404 137.925 149.724C137.317 150.036 136.601 150.192 135.777 150.192C135.105 150.192 134.509 150.08 133.989 149.856C133.477 149.624 133.045 149.3 132.693 148.884C132.341 148.468 132.073 147.976 131.889 147.408C131.713 146.832 131.625 146.2 131.625 145.512V137.688H134.589V145.512C134.589 146.264 134.761 146.848 135.105 147.264C135.457 147.672 135.981 147.876 136.677 147.876C137.189 147.876 137.669 147.764 138.117 147.54C138.565 147.308 138.989 146.992 139.389 146.592V137.688H142.353ZM148.292 132.168V150H145.328V132.168H148.292ZM157.749 144.744C156.893 144.784 156.173 144.86 155.589 144.972C155.005 145.076 154.537 145.212 154.185 145.38C153.833 145.548 153.581 145.744 153.429 145.968C153.277 146.192 153.201 146.436 153.201 146.7C153.201 147.22 153.353 147.592 153.657 147.816C153.969 148.04 154.373 148.152 154.869 148.152C155.477 148.152 156.001 148.044 156.441 147.828C156.889 147.604 157.325 147.268 157.749 146.82V144.744ZM150.957 139.404C152.373 138.108 154.077 137.46 156.069 137.46C156.789 137.46 157.433 137.58 158.001 137.82C158.569 138.052 159.049 138.38 159.441 138.804C159.833 139.22 160.129 139.72 160.329 140.304C160.537 140.888 160.641 141.528 160.641 142.224V150H159.297C159.017 150 158.801 149.96 158.649 149.88C158.497 149.792 158.377 149.62 158.289 149.364L158.025 148.476C157.713 148.756 157.409 149.004 157.113 149.22C156.817 149.428 156.509 149.604 156.189 149.748C155.869 149.892 155.525 150 155.157 150.072C154.797 150.152 154.397 150.192 153.957 150.192C153.437 150.192 152.957 150.124 152.517 149.988C152.077 149.844 151.697 149.632 151.377 149.352C151.057 149.072 150.809 148.724 150.633 148.308C150.457 147.892 150.369 147.408 150.369 146.856C150.369 146.544 150.421 146.236 150.525 145.932C150.629 145.62 150.797 145.324 151.029 145.044C151.269 144.764 151.577 144.5 151.953 144.252C152.329 144.004 152.789 143.788 153.333 143.604C153.885 143.42 154.525 143.272 155.253 143.16C155.981 143.04 156.813 142.968 157.749 142.944V142.224C157.749 141.4 157.573 140.792 157.221 140.4C156.869 140 156.361 139.8 155.697 139.8C155.217 139.8 154.817 139.856 154.497 139.968C154.185 140.08 153.909 140.208 153.669 140.352C153.429 140.488 153.209 140.612 153.009 140.724C152.817 140.836 152.601 140.892 152.361 140.892C152.153 140.892 151.977 140.84 151.833 140.736C151.689 140.624 151.573 140.496 151.485 140.352L150.957 139.404ZM159.945 132.456L156.981 135.588C156.829 135.748 156.681 135.86 156.537 135.924C156.401 135.98 156.221 136.008 155.997 136.008H154.221L155.925 133.092C156.045 132.884 156.185 132.728 156.345 132.624C156.505 132.512 156.745 132.456 157.065 132.456H159.945ZM166.229 139.824C166.613 139.088 167.069 138.512 167.597 138.096C168.125 137.672 168.749 137.46 169.469 137.46C170.037 137.46 170.493 137.584 170.837 137.832L170.645 140.052C170.605 140.196 170.545 140.3 170.465 140.364C170.393 140.42 170.293 140.448 170.165 140.448C170.045 140.448 169.865 140.428 169.625 140.388C169.393 140.348 169.165 140.328 168.941 140.328C168.613 140.328 168.321 140.376 168.065 140.472C167.809 140.568 167.577 140.708 167.369 140.892C167.169 141.068 166.989 141.284 166.829 141.54C166.677 141.796 166.533 142.088 166.397 142.416V150H163.433V137.688H165.173C165.477 137.688 165.689 137.744 165.809 137.856C165.929 137.96 166.009 138.152 166.049 138.432L166.229 139.824ZM175.458 137.688V150H172.482V137.688H175.458ZM175.866 134.1C175.866 134.356 175.814 134.596 175.71 134.82C175.606 135.044 175.466 135.24 175.29 135.408C175.122 135.576 174.922 135.712 174.69 135.816C174.458 135.912 174.21 135.96 173.946 135.96C173.69 135.96 173.446 135.912 173.214 135.816C172.99 135.712 172.794 135.576 172.626 135.408C172.458 135.24 172.322 135.044 172.218 134.82C172.122 134.596 172.074 134.356 172.074 134.1C172.074 133.836 172.122 133.588 172.218 133.356C172.322 133.124 172.458 132.924 172.626 132.756C172.794 132.588 172.99 132.456 173.214 132.36C173.446 132.256 173.69 132.204 173.946 132.204C174.21 132.204 174.458 132.256 174.69 132.36C174.922 132.456 175.122 132.588 175.29 132.756C175.466 132.924 175.606 133.124 175.71 133.356C175.814 133.588 175.866 133.836 175.866 134.1ZM183.928 137.496C184.84 137.496 185.668 137.644 186.412 137.94C187.164 138.236 187.804 138.656 188.332 139.2C188.868 139.744 189.28 140.408 189.568 141.192C189.856 141.976 190 142.852 190 143.82C190 144.796 189.856 145.676 189.568 146.46C189.28 147.244 188.868 147.912 188.332 148.464C187.804 149.016 187.164 149.44 186.412 149.736C185.668 150.032 184.84 150.18 183.928 150.18C183.008 150.18 182.172 150.032 181.42 149.736C180.668 149.44 180.024 149.016 179.488 148.464C178.96 147.912 178.548 147.244 178.252 146.46C177.964 145.676 177.82 144.796 177.82 143.82C177.82 142.852 177.964 141.976 178.252 141.192C178.548 140.408 178.96 139.744 179.488 139.2C180.024 138.656 180.668 138.236 181.42 137.94C182.172 137.644 183.008 137.496 183.928 137.496ZM183.928 147.9C184.952 147.9 185.708 147.556 186.196 146.868C186.692 146.18 186.94 145.172 186.94 143.844C186.94 142.516 186.692 141.504 186.196 140.808C185.708 140.112 184.952 139.764 183.928 139.764C182.888 139.764 182.116 140.116 181.612 140.82C181.116 141.516 180.868 142.524 180.868 143.844C180.868 145.164 181.116 146.172 181.612 146.868C182.116 147.556 182.888 147.9 183.928 147.9ZM206.029 142.428C206.029 142.044 205.973 141.684 205.861 141.348C205.757 141.004 205.597 140.704 205.381 140.448C205.165 140.192 204.889 139.992 204.553 139.848C204.225 139.696 203.841 139.62 203.401 139.62C202.545 139.62 201.869 139.864 201.373 140.352C200.885 140.84 200.573 141.532 200.437 142.428H206.029ZM200.377 144.216C200.425 144.848 200.537 145.396 200.713 145.86C200.889 146.316 201.121 146.696 201.409 147C201.697 147.296 202.037 147.52 202.429 147.672C202.829 147.816 203.269 147.888 203.749 147.888C204.229 147.888 204.641 147.832 204.985 147.72C205.337 147.608 205.641 147.484 205.897 147.348C206.161 147.212 206.389 147.088 206.581 146.976C206.781 146.864 206.973 146.808 207.157 146.808C207.405 146.808 207.589 146.9 207.709 147.084L208.561 148.164C208.233 148.548 207.865 148.872 207.457 149.136C207.049 149.392 206.621 149.6 206.173 149.76C205.733 149.912 205.281 150.02 204.817 150.084C204.361 150.148 203.917 150.18 203.485 150.18C202.629 150.18 201.833 150.04 201.097 149.76C200.361 149.472 199.721 149.052 199.177 148.5C198.633 147.94 198.205 147.252 197.893 146.436C197.581 145.612 197.425 144.66 197.425 143.58C197.425 142.74 197.561 141.952 197.833 141.216C198.105 140.472 198.493 139.828 198.997 139.284C199.509 138.732 200.129 138.296 200.857 137.976C201.593 137.656 202.421 137.496 203.341 137.496C204.117 137.496 204.833 137.62 205.489 137.868C206.145 138.116 206.709 138.48 207.181 138.96C207.653 139.432 208.021 140.016 208.285 140.712C208.557 141.4 208.693 142.188 208.693 143.076C208.693 143.524 208.645 143.828 208.549 143.988C208.453 144.14 208.269 144.216 207.997 144.216H200.377ZM213.689 139.2C213.937 138.952 214.197 138.724 214.469 138.516C214.749 138.3 215.041 138.12 215.345 137.976C215.657 137.824 215.989 137.708 216.341 137.628C216.693 137.54 217.077 137.496 217.493 137.496C218.165 137.496 218.761 137.612 219.281 137.844C219.801 138.068 220.233 138.388 220.577 138.804C220.929 139.212 221.193 139.704 221.369 140.28C221.553 140.848 221.645 141.476 221.645 142.164V150H218.681V142.164C218.681 141.412 218.509 140.832 218.165 140.424C217.821 140.008 217.297 139.8 216.593 139.8C216.081 139.8 215.601 139.916 215.153 140.148C214.705 140.38 214.281 140.696 213.881 141.096V150H210.917V137.688H212.729C213.113 137.688 213.365 137.868 213.485 138.228L213.689 139.2ZM235.283 137.688L230.399 150H227.711L222.827 137.688H225.275C225.499 137.688 225.683 137.74 225.827 137.844C225.979 137.948 226.079 138.08 226.127 138.24L228.503 144.816C228.631 145.2 228.743 145.576 228.839 145.944C228.935 146.312 229.019 146.68 229.091 147.048C229.171 146.68 229.259 146.312 229.355 145.944C229.451 145.576 229.567 145.2 229.703 144.816L232.127 138.24C232.183 138.08 232.283 137.948 232.427 137.844C232.571 137.74 232.743 137.688 232.943 137.688H235.283ZM239.934 137.688V150H236.958V137.688H239.934ZM240.342 134.1C240.342 134.356 240.29 134.596 240.186 134.82C240.082 135.044 239.942 135.24 239.766 135.408C239.598 135.576 239.398 135.712 239.166 135.816C238.934 135.912 238.686 135.96 238.422 135.96C238.166 135.96 237.922 135.912 237.69 135.816C237.466 135.712 237.27 135.576 237.102 135.408C236.934 135.24 236.798 135.044 236.694 134.82C236.598 134.596 236.55 134.356 236.55 134.1C236.55 133.836 236.598 133.588 236.694 133.356C236.798 133.124 236.934 132.924 237.102 132.756C237.27 132.588 237.466 132.456 237.69 132.36C237.922 132.256 238.166 132.204 238.422 132.204C238.686 132.204 238.934 132.256 239.166 132.36C239.398 132.456 239.598 132.588 239.766 132.756C239.942 132.924 240.082 133.124 240.186 133.356C240.29 133.588 240.342 133.836 240.342 134.1ZM249.46 144.744C248.604 144.784 247.884 144.86 247.3 144.972C246.716 145.076 246.248 145.212 245.896 145.38C245.544 145.548 245.292 145.744 245.14 145.968C244.988 146.192 244.912 146.436 244.912 146.7C244.912 147.22 245.064 147.592 245.368 147.816C245.68 148.04 246.084 148.152 246.58 148.152C247.188 148.152 247.712 148.044 248.152 147.828C248.6 147.604 249.036 147.268 249.46 146.82V144.744ZM242.668 139.404C244.084 138.108 245.788 137.46 247.78 137.46C248.5 137.46 249.144 137.58 249.712 137.82C250.28 138.052 250.76 138.38 251.152 138.804C251.544 139.22 251.84 139.72 252.04 140.304C252.248 140.888 252.352 141.528 252.352 142.224V150H251.008C250.728 150 250.512 149.96 250.36 149.88C250.208 149.792 250.088 149.62 250 149.364L249.736 148.476C249.424 148.756 249.12 149.004 248.824 149.22C248.528 149.428 248.22 149.604 247.9 149.748C247.58 149.892 247.236 150 246.868 150.072C246.508 150.152 246.108 150.192 245.668 150.192C245.148 150.192 244.668 150.124 244.228 149.988C243.788 149.844 243.408 149.632 243.088 149.352C242.768 149.072 242.52 148.724 242.344 148.308C242.168 147.892 242.08 147.408 242.08 146.856C242.08 146.544 242.132 146.236 242.236 145.932C242.34 145.62 242.508 145.324 242.74 145.044C242.98 144.764 243.288 144.5 243.664 144.252C244.04 144.004 244.5 143.788 245.044 143.604C245.596 143.42 246.236 143.272 246.964 143.16C247.692 143.04 248.524 142.968 249.46 142.944V142.224C249.46 141.4 249.284 140.792 248.932 140.4C248.58 140 248.072 139.8 247.408 139.8C246.928 139.8 246.528 139.856 246.208 139.968C245.896 140.08 245.62 140.208 245.38 140.352C245.14 140.488 244.92 140.612 244.72 140.724C244.528 140.836 244.312 140.892 244.072 140.892C243.864 140.892 243.688 140.84 243.544 140.736C243.4 140.624 243.284 140.496 243.196 140.352L242.668 139.404ZM262.872 140.832C262.536 140.424 262.168 140.136 261.768 139.968C261.376 139.8 260.952 139.716 260.496 139.716C260.048 139.716 259.644 139.8 259.284 139.968C258.924 140.136 258.616 140.392 258.36 140.736C258.104 141.072 257.908 141.504 257.772 142.032C257.636 142.552 257.568 143.168 257.568 143.88C257.568 144.6 257.624 145.212 257.736 145.716C257.856 146.212 258.024 146.62 258.24 146.94C258.456 147.252 258.72 147.48 259.032 147.624C259.344 147.76 259.692 147.828 260.076 147.828C260.692 147.828 261.216 147.7 261.648 147.444C262.08 147.188 262.488 146.824 262.872 146.352V140.832ZM265.836 132.168V150H264.024C263.632 150 263.384 149.82 263.28 149.46L263.028 148.272C262.532 148.84 261.96 149.3 261.312 149.652C260.672 150.004 259.924 150.18 259.068 150.18C258.396 150.18 257.78 150.04 257.22 149.76C256.66 149.48 256.176 149.076 255.768 148.548C255.368 148.012 255.056 147.352 254.832 146.568C254.616 145.784 254.508 144.888 254.508 143.88C254.508 142.968 254.632 142.12 254.88 141.336C255.128 140.552 255.484 139.872 255.948 139.296C256.412 138.72 256.968 138.272 257.616 137.952C258.264 137.624 258.992 137.46 259.8 137.46C260.488 137.46 261.076 137.568 261.564 137.784C262.052 138 262.488 138.292 262.872 138.66V132.168H265.836ZM274.209 137.496C275.121 137.496 275.949 137.644 276.693 137.94C277.445 138.236 278.085 138.656 278.613 139.2C279.149 139.744 279.561 140.408 279.849 141.192C280.137 141.976 280.281 142.852 280.281 143.82C280.281 144.796 280.137 145.676 279.849 146.46C279.561 147.244 279.149 147.912 278.613 148.464C278.085 149.016 277.445 149.44 276.693 149.736C275.949 150.032 275.121 150.18 274.209 150.18C273.289 150.18 272.453 150.032 271.701 149.736C270.949 149.44 270.305 149.016 269.769 148.464C269.241 147.912 268.829 147.244 268.533 146.46C268.245 145.676 268.101 144.796 268.101 143.82C268.101 142.852 268.245 141.976 268.533 141.192C268.829 140.408 269.241 139.744 269.769 139.2C270.305 138.656 270.949 138.236 271.701 137.94C272.453 137.644 273.289 137.496 274.209 137.496ZM274.209 147.9C275.233 147.9 275.989 147.556 276.477 146.868C276.973 146.18 277.221 145.172 277.221 143.844C277.221 142.516 276.973 141.504 276.477 140.808C275.989 140.112 275.233 139.764 274.209 139.764C273.169 139.764 272.397 140.116 271.893 140.82C271.397 141.516 271.149 142.524 271.149 143.844C271.149 145.164 271.397 146.172 271.893 146.868C272.397 147.556 273.169 147.9 274.209 147.9ZM117.784 169.292C117.696 169.404 117.608 169.492 117.52 169.556C117.44 169.62 117.32 169.652 117.16 169.652C117.008 169.652 116.86 169.608 116.716 169.52C116.572 169.424 116.4 169.32 116.2 169.208C116 169.088 115.76 168.984 115.48 168.896C115.208 168.8 114.868 168.752 114.46 168.752C113.94 168.752 113.484 168.848 113.092 169.04C112.7 169.224 112.372 169.492 112.108 169.844C111.852 170.196 111.66 170.624 111.532 171.128C111.404 171.624 111.34 172.188 111.34 172.82C111.34 173.476 111.408 174.06 111.544 174.572C111.688 175.084 111.892 175.516 112.156 175.868C112.42 176.212 112.74 176.476 113.116 176.66C113.492 176.836 113.916 176.924 114.388 176.924C114.86 176.924 115.24 176.868 115.528 176.756C115.824 176.636 116.072 176.508 116.272 176.372C116.472 176.228 116.644 176.1 116.788 175.988C116.94 175.868 117.108 175.808 117.292 175.808C117.532 175.808 117.712 175.9 117.832 176.084L118.684 177.164C118.356 177.548 118 177.872 117.616 178.136C117.232 178.392 116.832 178.6 116.416 178.76C116.008 178.912 115.584 179.02 115.144 179.084C114.712 179.148 114.28 179.18 113.848 179.18C113.088 179.18 112.372 179.04 111.7 178.76C111.028 178.472 110.44 178.056 109.936 177.512C109.432 176.968 109.032 176.304 108.736 175.52C108.448 174.728 108.304 173.828 108.304 172.82C108.304 171.916 108.432 171.08 108.688 170.312C108.952 169.536 109.336 168.868 109.84 168.308C110.344 167.74 110.968 167.296 111.712 166.976C112.456 166.656 113.312 166.496 114.28 166.496C115.2 166.496 116.004 166.644 116.692 166.94C117.388 167.236 118.012 167.66 118.564 168.212L117.784 169.292ZM125.779 166.496C126.691 166.496 127.519 166.644 128.263 166.94C129.015 167.236 129.655 167.656 130.183 168.2C130.719 168.744 131.131 169.408 131.419 170.192C131.707 170.976 131.851 171.852 131.851 172.82C131.851 173.796 131.707 174.676 131.419 175.46C131.131 176.244 130.719 176.912 130.183 177.464C129.655 178.016 129.015 178.44 128.263 178.736C127.519 179.032 126.691 179.18 125.779 179.18C124.859 179.18 124.023 179.032 123.271 178.736C122.519 178.44 121.875 178.016 121.339 177.464C120.811 176.912 120.399 176.244 120.103 175.46C119.815 174.676 119.671 173.796 119.671 172.82C119.671 171.852 119.815 170.976 120.103 170.192C120.399 169.408 120.811 168.744 121.339 168.2C121.875 167.656 122.519 167.236 123.271 166.94C124.023 166.644 124.859 166.496 125.779 166.496ZM125.779 176.9C126.803 176.9 127.559 176.556 128.047 175.868C128.543 175.18 128.791 174.172 128.791 172.844C128.791 171.516 128.543 170.504 128.047 169.808C127.559 169.112 126.803 168.764 125.779 168.764C124.739 168.764 123.967 169.116 123.463 169.82C122.967 170.516 122.719 171.524 122.719 172.844C122.719 174.164 122.967 175.172 123.463 175.868C123.967 176.556 124.739 176.9 125.779 176.9ZM134.112 179V166.688H135.924C136.308 166.688 136.56 166.868 136.68 167.228L136.872 168.14C137.088 167.9 137.312 167.68 137.544 167.48C137.784 167.28 138.036 167.108 138.3 166.964C138.572 166.82 138.86 166.708 139.164 166.628C139.476 166.54 139.816 166.496 140.184 166.496C140.96 166.496 141.596 166.708 142.092 167.132C142.596 167.548 142.972 168.104 143.22 168.8C143.412 168.392 143.652 168.044 143.94 167.756C144.228 167.46 144.544 167.22 144.888 167.036C145.232 166.852 145.596 166.716 145.98 166.628C146.372 166.54 146.764 166.496 147.156 166.496C147.836 166.496 148.44 166.6 148.968 166.808C149.496 167.016 149.94 167.32 150.3 167.72C150.66 168.12 150.932 168.608 151.116 169.184C151.308 169.76 151.404 170.42 151.404 171.164V179H148.44V171.164C148.44 170.38 148.268 169.792 147.924 169.4C147.58 169 147.076 168.8 146.412 168.8C146.108 168.8 145.824 168.852 145.56 168.956C145.304 169.06 145.076 169.212 144.876 169.412C144.684 169.604 144.532 169.848 144.42 170.144C144.308 170.44 144.252 170.78 144.252 171.164V179H141.276V171.164C141.276 170.34 141.108 169.74 140.772 169.364C140.444 168.988 139.96 168.8 139.32 168.8C138.888 168.8 138.484 168.908 138.108 169.124C137.74 169.332 137.396 169.62 137.076 169.988V179H134.112ZM167.57 169.088C167.49 169.216 167.406 169.308 167.318 169.364C167.23 169.412 167.118 169.436 166.982 169.436C166.838 169.436 166.682 169.396 166.514 169.316C166.354 169.236 166.166 169.148 165.95 169.052C165.734 168.948 165.486 168.856 165.206 168.776C164.934 168.696 164.61 168.656 164.234 168.656C163.65 168.656 163.19 168.78 162.854 169.028C162.526 169.276 162.362 169.6 162.362 170C162.362 170.264 162.446 170.488 162.614 170.672C162.79 170.848 163.018 171.004 163.298 171.14C163.586 171.276 163.91 171.4 164.27 171.512C164.63 171.616 164.994 171.732 165.362 171.86C165.738 171.988 166.106 172.136 166.466 172.304C166.826 172.464 167.146 172.672 167.426 172.928C167.714 173.176 167.942 173.476 168.11 173.828C168.286 174.18 168.374 174.604 168.374 175.1C168.374 175.692 168.266 176.24 168.05 176.744C167.842 177.24 167.53 177.672 167.114 178.04C166.698 178.4 166.182 178.684 165.566 178.892C164.958 179.092 164.254 179.192 163.454 179.192C163.03 179.192 162.614 179.152 162.206 179.072C161.806 179 161.418 178.896 161.042 178.76C160.674 178.624 160.33 178.464 160.01 178.28C159.698 178.096 159.422 177.896 159.182 177.68L159.866 176.552C159.954 176.416 160.058 176.312 160.178 176.24C160.298 176.168 160.45 176.132 160.634 176.132C160.818 176.132 160.99 176.184 161.15 176.288C161.318 176.392 161.51 176.504 161.726 176.624C161.942 176.744 162.194 176.856 162.482 176.96C162.778 177.064 163.15 177.116 163.598 177.116C163.95 177.116 164.25 177.076 164.498 176.996C164.754 176.908 164.962 176.796 165.122 176.66C165.29 176.524 165.41 176.368 165.482 176.192C165.562 176.008 165.602 175.82 165.602 175.628C165.602 175.34 165.514 175.104 165.338 174.92C165.17 174.736 164.942 174.576 164.654 174.44C164.374 174.304 164.05 174.184 163.682 174.08C163.322 173.968 162.95 173.848 162.566 173.72C162.19 173.592 161.818 173.444 161.45 173.276C161.09 173.1 160.766 172.88 160.478 172.616C160.198 172.352 159.97 172.028 159.794 171.644C159.626 171.26 159.542 170.796 159.542 170.252C159.542 169.748 159.642 169.268 159.842 168.812C160.042 168.356 160.334 167.96 160.718 167.624C161.11 167.28 161.594 167.008 162.17 166.808C162.754 166.6 163.426 166.496 164.186 166.496C165.034 166.496 165.806 166.636 166.502 166.916C167.198 167.196 167.778 167.564 168.242 168.02L167.57 169.088ZM181.213 166.688V179H179.401C179.009 179 178.761 178.82 178.657 178.46L178.453 177.476C177.949 177.988 177.393 178.404 176.785 178.724C176.177 179.036 175.461 179.192 174.637 179.192C173.965 179.192 173.369 179.08 172.849 178.856C172.337 178.624 171.905 178.3 171.553 177.884C171.201 177.468 170.933 176.976 170.749 176.408C170.573 175.832 170.485 175.2 170.485 174.512V166.688H173.449V174.512C173.449 175.264 173.621 175.848 173.965 176.264C174.317 176.672 174.841 176.876 175.537 176.876C176.049 176.876 176.529 176.764 176.977 176.54C177.425 176.308 177.849 175.992 178.249 175.592V166.688H181.213ZM192.972 169.292C192.884 169.404 192.796 169.492 192.708 169.556C192.628 169.62 192.508 169.652 192.348 169.652C192.196 169.652 192.048 169.608 191.904 169.52C191.76 169.424 191.588 169.32 191.388 169.208C191.188 169.088 190.948 168.984 190.668 168.896C190.396 168.8 190.056 168.752 189.648 168.752C189.128 168.752 188.672 168.848 188.28 169.04C187.888 169.224 187.56 169.492 187.296 169.844C187.04 170.196 186.848 170.624 186.72 171.128C186.592 171.624 186.528 172.188 186.528 172.82C186.528 173.476 186.596 174.06 186.732 174.572C186.876 175.084 187.08 175.516 187.344 175.868C187.608 176.212 187.928 176.476 188.304 176.66C188.68 176.836 189.104 176.924 189.576 176.924C190.048 176.924 190.428 176.868 190.716 176.756C191.012 176.636 191.26 176.508 191.46 176.372C191.66 176.228 191.832 176.1 191.976 175.988C192.128 175.868 192.296 175.808 192.48 175.808C192.72 175.808 192.9 175.9 193.02 176.084L193.872 177.164C193.544 177.548 193.188 177.872 192.804 178.136C192.42 178.392 192.02 178.6 191.604 178.76C191.196 178.912 190.772 179.02 190.332 179.084C189.9 179.148 189.468 179.18 189.036 179.18C188.276 179.18 187.56 179.04 186.888 178.76C186.216 178.472 185.628 178.056 185.124 177.512C184.62 176.968 184.22 176.304 183.924 175.52C183.636 174.728 183.492 173.828 183.492 172.82C183.492 171.916 183.62 171.08 183.876 170.312C184.14 169.536 184.524 168.868 185.028 168.308C185.532 167.74 186.156 167.296 186.9 166.976C187.644 166.656 188.5 166.496 189.467 166.496C190.388 166.496 191.192 166.644 191.88 166.94C192.576 167.236 193.2 167.66 193.752 168.212L192.972 169.292ZM203.451 171.428C203.451 171.044 203.395 170.684 203.283 170.348C203.179 170.004 203.019 169.704 202.803 169.448C202.587 169.192 202.311 168.992 201.975 168.848C201.647 168.696 201.263 168.62 200.823 168.62C199.967 168.62 199.291 168.864 198.795 169.352C198.307 169.84 197.995 170.532 197.859 171.428H203.451ZM197.799 173.216C197.847 173.848 197.959 174.396 198.135 174.86C198.311 175.316 198.543 175.696 198.831 176C199.119 176.296 199.459 176.52 199.851 176.672C200.251 176.816 200.691 176.888 201.171 176.888C201.651 176.888 202.063 176.832 202.407 176.72C202.759 176.608 203.063 176.484 203.319 176.348C203.583 176.212 203.811 176.088 204.003 175.976C204.203 175.864 204.395 175.808 204.579 175.808C204.827 175.808 205.011 175.9 205.131 176.084L205.983 177.164C205.655 177.548 205.287 177.872 204.879 178.136C204.471 178.392 204.043 178.6 203.595 178.76C203.155 178.912 202.703 179.02 202.239 179.084C201.783 179.148 201.339 179.18 200.907 179.18C200.051 179.18 199.255 179.04 198.519 178.76C197.783 178.472 197.143 178.052 196.599 177.5C196.055 176.94 195.627 176.252 195.315 175.436C195.003 174.612 194.847 173.66 194.847 172.58C194.847 171.74 194.983 170.952 195.255 170.216C195.527 169.472 195.915 168.828 196.419 168.284C196.931 167.732 197.551 167.296 198.279 166.976C199.015 166.656 199.843 166.496 200.763 166.496C201.539 166.496 202.255 166.62 202.911 166.868C203.567 167.116 204.131 167.48 204.603 167.96C205.075 168.432 205.443 169.016 205.707 169.712C205.979 170.4 206.115 171.188 206.115 172.076C206.115 172.524 206.067 172.828 205.971 172.988C205.875 173.14 205.691 173.216 205.419 173.216H197.799ZM215.851 169.088C215.771 169.216 215.687 169.308 215.599 169.364C215.511 169.412 215.399 169.436 215.263 169.436C215.119 169.436 214.963 169.396 214.795 169.316C214.635 169.236 214.447 169.148 214.231 169.052C214.015 168.948 213.767 168.856 213.487 168.776C213.215 168.696 212.891 168.656 212.515 168.656C211.931 168.656 211.471 168.78 211.135 169.028C210.807 169.276 210.643 169.6 210.643 170C210.643 170.264 210.727 170.488 210.895 170.672C211.071 170.848 211.299 171.004 211.579 171.14C211.867 171.276 212.191 171.4 212.551 171.512C212.911 171.616 213.275 171.732 213.643 171.86C214.019 171.988 214.387 172.136 214.747 172.304C215.107 172.464 215.427 172.672 215.707 172.928C215.995 173.176 216.223 173.476 216.391 173.828C216.567 174.18 216.655 174.604 216.655 175.1C216.655 175.692 216.547 176.24 216.331 176.744C216.123 177.24 215.811 177.672 215.395 178.04C214.979 178.4 214.463 178.684 213.847 178.892C213.239 179.092 212.535 179.192 211.735 179.192C211.311 179.192 210.895 179.152 210.487 179.072C210.087 179 209.699 178.896 209.323 178.76C208.955 178.624 208.611 178.464 208.291 178.28C207.979 178.096 207.703 177.896 207.463 177.68L208.147 176.552C208.235 176.416 208.339 176.312 208.459 176.24C208.579 176.168 208.731 176.132 208.915 176.132C209.099 176.132 209.271 176.184 209.431 176.288C209.599 176.392 209.791 176.504 210.007 176.624C210.223 176.744 210.475 176.856 210.763 176.96C211.059 177.064 211.431 177.116 211.879 177.116C212.231 177.116 212.531 177.076 212.779 176.996C213.035 176.908 213.243 176.796 213.403 176.66C213.571 176.524 213.691 176.368 213.763 176.192C213.843 176.008 213.883 175.82 213.883 175.628C213.883 175.34 213.795 175.104 213.619 174.92C213.451 174.736 213.223 174.576 212.935 174.44C212.655 174.304 212.331 174.184 211.963 174.08C211.603 173.968 211.231 173.848 210.847 173.72C210.471 173.592 210.099 173.444 209.731 173.276C209.371 173.1 209.047 172.88 208.759 172.616C208.479 172.352 208.251 172.028 208.075 171.644C207.907 171.26 207.823 170.796 207.823 170.252C207.823 169.748 207.923 169.268 208.123 168.812C208.323 168.356 208.615 167.96 208.999 167.624C209.391 167.28 209.875 167.008 210.451 166.808C211.035 166.6 211.707 166.496 212.467 166.496C213.315 166.496 214.087 166.636 214.783 166.916C215.479 167.196 216.059 167.564 216.523 168.02L215.851 169.088ZM226.398 169.088C226.318 169.216 226.234 169.308 226.146 169.364C226.058 169.412 225.946 169.436 225.81 169.436C225.666 169.436 225.51 169.396 225.342 169.316C225.182 169.236 224.994 169.148 224.778 169.052C224.562 168.948 224.314 168.856 224.034 168.776C223.762 168.696 223.438 168.656 223.062 168.656C222.478 168.656 222.018 168.78 221.682 169.028C221.354 169.276 221.19 169.6 221.19 170C221.19 170.264 221.274 170.488 221.442 170.672C221.618 170.848 221.846 171.004 222.126 171.14C222.414 171.276 222.738 171.4 223.098 171.512C223.458 171.616 223.822 171.732 224.19 171.86C224.566 171.988 224.934 172.136 225.294 172.304C225.654 172.464 225.974 172.672 226.254 172.928C226.542 173.176 226.77 173.476 226.938 173.828C227.114 174.18 227.202 174.604 227.202 175.1C227.202 175.692 227.094 176.24 226.878 176.744C226.67 177.24 226.358 177.672 225.942 178.04C225.526 178.4 225.01 178.684 224.394 178.892C223.786 179.092 223.082 179.192 222.282 179.192C221.858 179.192 221.442 179.152 221.034 179.072C220.634 179 220.246 178.896 219.87 178.76C219.502 178.624 219.158 178.464 218.838 178.28C218.526 178.096 218.25 177.896 218.01 177.68L218.694 176.552C218.782 176.416 218.886 176.312 219.006 176.24C219.126 176.168 219.278 176.132 219.462 176.132C219.646 176.132 219.818 176.184 219.978 176.288C220.146 176.392 220.338 176.504 220.554 176.624C220.77 176.744 221.022 176.856 221.31 176.96C221.606 177.064 221.978 177.116 222.426 177.116C222.778 177.116 223.078 177.076 223.326 176.996C223.582 176.908 223.79 176.796 223.95 176.66C224.118 176.524 224.238 176.368 224.31 176.192C224.39 176.008 224.43 175.82 224.43 175.628C224.43 175.34 224.342 175.104 224.166 174.92C223.998 174.736 223.77 174.576 223.482 174.44C223.202 174.304 222.878 174.184 222.51 174.08C222.15 173.968 221.778 173.848 221.394 173.72C221.018 173.592 220.646 173.444 220.278 173.276C219.918 173.1 219.594 172.88 219.306 172.616C219.026 172.352 218.798 172.028 218.622 171.644C218.454 171.26 218.37 170.796 218.37 170.252C218.37 169.748 218.47 169.268 218.67 168.812C218.87 168.356 219.162 167.96 219.546 167.624C219.938 167.28 220.422 167.008 220.998 166.808C221.582 166.6 222.254 166.496 223.014 166.496C223.862 166.496 224.634 166.636 225.33 166.916C226.026 167.196 226.606 167.564 227.07 168.02L226.398 169.088ZM234.881 166.496C235.793 166.496 236.621 166.644 237.365 166.94C238.117 167.236 238.757 167.656 239.285 168.2C239.821 168.744 240.233 169.408 240.521 170.192C240.809 170.976 240.953 171.852 240.953 172.82C240.953 173.796 240.809 174.676 240.521 175.46C240.233 176.244 239.821 176.912 239.285 177.464C238.757 178.016 238.117 178.44 237.365 178.736C236.621 179.032 235.793 179.18 234.881 179.18C233.961 179.18 233.125 179.032 232.373 178.736C231.621 178.44 230.977 178.016 230.441 177.464C229.913 176.912 229.501 176.244 229.205 175.46C228.917 174.676 228.773 173.796 228.773 172.82C228.773 171.852 228.917 170.976 229.205 170.192C229.501 169.408 229.913 168.744 230.441 168.2C230.977 167.656 231.621 167.236 232.373 166.94C233.125 166.644 233.961 166.496 234.881 166.496ZM234.881 176.9C235.905 176.9 236.661 176.556 237.149 175.868C237.645 175.18 237.893 174.172 237.893 172.844C237.893 171.516 237.645 170.504 237.149 169.808C236.661 169.112 235.905 168.764 234.881 168.764C233.841 168.764 233.069 169.116 232.565 169.82C232.069 170.516 231.821 171.524 231.821 172.844C231.821 174.164 232.069 175.172 232.565 175.868C233.069 176.556 233.841 176.9 234.881 176.9ZM246.526 161.648V168.512C246.526 169.24 246.49 169.956 246.418 170.66C246.346 171.356 246.254 172.096 246.142 172.88H244.126C244.014 172.096 243.922 171.356 243.85 170.66C243.778 169.956 243.742 169.24 243.742 168.512V161.648H246.526ZM243.274 177.368C243.274 177.12 243.318 176.884 243.406 176.66C243.502 176.436 243.63 176.244 243.79 176.084C243.958 175.924 244.154 175.796 244.378 175.7C244.602 175.604 244.842 175.556 245.098 175.556C245.346 175.556 245.582 175.604 245.806 175.7C246.03 175.796 246.222 175.924 246.382 176.084C246.55 176.244 246.682 176.436 246.778 176.66C246.874 176.884 246.922 177.12 246.922 177.368C246.922 177.624 246.874 177.864 246.778 178.088C246.682 178.304 246.55 178.492 246.382 178.652C246.222 178.812 246.03 178.936 245.806 179.024C245.582 179.12 245.346 179.168 245.098 179.168C244.842 179.168 244.602 179.12 244.378 179.024C244.154 178.936 243.958 178.812 243.79 178.652C243.63 178.492 243.502 178.304 243.406 178.088C243.318 177.864 243.274 177.624 243.274 177.368Z" fill="#3C3C3C"></path><path d="M84.8033 202.618V208H83.0663V195.103H86.7113C87.5273 195.103 88.2323 195.187 88.8263 195.355C89.4203 195.517 89.9093 195.754 90.2933 196.066C90.6833 196.378 90.9713 196.756 91.1573 197.2C91.3433 197.638 91.4363 198.13 91.4363 198.676C91.4363 199.132 91.3643 199.558 91.2203 199.954C91.0763 200.35 90.8663 200.707 90.5903 201.025C90.3203 201.337 89.9873 201.604 89.5913 201.826C89.2013 202.048 88.7573 202.216 88.2593 202.33C88.4753 202.456 88.6673 202.639 88.8353 202.879L92.5973 208H91.0493C90.7313 208 90.4973 207.877 90.3473 207.631L86.9993 203.023C86.8973 202.879 86.7863 202.777 86.6663 202.717C86.5463 202.651 86.3663 202.618 86.1263 202.618H84.8033ZM84.8033 201.349H86.6303C87.1403 201.349 87.5873 201.289 87.9713 201.169C88.3613 201.043 88.6853 200.869 88.9433 200.647C89.2073 200.419 89.4053 200.149 89.5373 199.837C89.6693 199.525 89.7353 199.18 89.7353 198.802C89.7353 198.034 89.4803 197.455 88.9703 197.065C88.4663 196.675 87.7133 196.48 86.7113 196.48H84.8033V201.349ZM97.8273 198.739C98.3733 198.739 98.8773 198.832 99.3393 199.018C99.8013 199.198 100.2 199.462 100.536 199.81C100.872 200.152 101.133 200.578 101.319 201.088C101.511 201.592 101.607 202.168 101.607 202.816C101.607 203.068 101.58 203.236 101.526 203.32C101.472 203.404 101.37 203.446 101.22 203.446H95.1543C95.1663 204.022 95.2443 204.523 95.3883 204.949C95.5323 205.375 95.7303 205.732 95.9823 206.02C96.2343 206.302 96.5343 206.515 96.8823 206.659C97.2303 206.797 97.6203 206.866 98.0523 206.866C98.4543 206.866 98.7993 206.821 99.0873 206.731C99.3813 206.635 99.6333 206.533 99.8433 206.425C100.053 206.317 100.227 206.218 100.365 206.128C100.509 206.032 100.632 205.984 100.734 205.984C100.866 205.984 100.968 206.035 101.04 206.137L101.49 206.722C101.292 206.962 101.055 207.172 100.779 207.352C100.503 207.526 100.206 207.67 99.8883 207.784C99.5763 207.898 99.2523 207.982 98.9163 208.036C98.5803 208.096 98.2473 208.126 97.9173 208.126C97.2873 208.126 96.7053 208.021 96.1713 207.811C95.6433 207.595 95.1843 207.283 94.7943 206.875C94.4103 206.461 94.1103 205.951 93.8943 205.345C93.6783 204.739 93.5703 204.043 93.5703 203.257C93.5703 202.621 93.6663 202.027 93.8583 201.475C94.0563 200.923 94.3383 200.446 94.7043 200.044C95.0703 199.636 95.5173 199.318 96.0453 199.09C96.5733 198.856 97.1673 198.739 97.8273 198.739ZM97.8633 199.918C97.0893 199.918 96.4803 200.143 96.0363 200.593C95.5923 201.037 95.3163 201.655 95.2083 202.447H100.167C100.167 202.075 100.116 201.736 100.014 201.43C99.9123 201.118 99.7623 200.851 99.5643 200.629C99.3663 200.401 99.1233 200.227 98.8353 200.107C98.5533 199.981 98.2293 199.918 97.8633 199.918ZM106.421 208.144C105.701 208.144 105.146 207.943 104.756 207.541C104.372 207.139 104.18 206.56 104.18 205.804V200.224H103.082C102.986 200.224 102.905 200.197 102.839 200.143C102.773 200.083 102.74 199.993 102.74 199.873V199.234L104.234 199.045L104.603 196.228C104.615 196.138 104.654 196.066 104.72 196.012C104.786 195.952 104.87 195.922 104.972 195.922H105.782V199.063H108.392V200.224H105.782V205.696C105.782 206.08 105.875 206.365 106.061 206.551C106.247 206.737 106.487 206.83 106.781 206.83C106.949 206.83 107.093 206.809 107.213 206.767C107.339 206.719 107.447 206.668 107.537 206.614C107.627 206.56 107.702 206.512 107.762 206.47C107.828 206.422 107.885 206.398 107.933 206.398C108.017 206.398 108.092 206.449 108.158 206.551L108.626 207.316C108.35 207.574 108.017 207.778 107.627 207.928C107.237 208.072 106.835 208.144 106.421 208.144ZM114.063 198.739C114.729 198.739 115.329 198.85 115.863 199.072C116.403 199.294 116.859 199.609 117.231 200.017C117.609 200.425 117.897 200.92 118.095 201.502C118.299 202.078 118.401 202.723 118.401 203.437C118.401 204.157 118.299 204.805 118.095 205.381C117.897 205.957 117.609 206.449 117.231 206.857C116.859 207.265 116.403 207.58 115.863 207.802C115.329 208.018 114.729 208.126 114.063 208.126C113.397 208.126 112.794 208.018 112.254 207.802C111.72 207.58 111.264 207.265 110.886 206.857C110.508 206.449 110.217 205.957 110.013 205.381C109.809 204.805 109.707 204.157 109.707 203.437C109.707 202.723 109.809 202.078 110.013 201.502C110.217 200.92 110.508 200.425 110.886 200.017C111.264 199.609 111.72 199.294 112.254 199.072C112.794 198.85 113.397 198.739 114.063 198.739ZM114.063 206.875C114.963 206.875 115.635 206.575 116.079 205.975C116.523 205.369 116.745 204.526 116.745 203.446C116.745 202.36 116.523 201.514 116.079 200.908C115.635 200.302 114.963 199.999 114.063 199.999C113.607 199.999 113.211 200.077 112.875 200.233C112.539 200.389 112.257 200.614 112.029 200.908C111.807 201.202 111.639 201.565 111.525 201.997C111.417 202.423 111.363 202.906 111.363 203.446C111.363 203.986 111.417 204.469 111.525 204.895C111.639 205.321 111.807 205.681 112.029 205.975C112.257 206.263 112.539 206.485 112.875 206.641C113.211 206.797 113.607 206.875 114.063 206.875ZM120.375 208V198.883H121.293C121.467 198.883 121.587 198.916 121.653 198.982C121.719 199.048 121.764 199.162 121.788 199.324L121.896 200.746C122.208 200.11 122.592 199.615 123.048 199.261C123.51 198.901 124.05 198.721 124.668 198.721C124.92 198.721 125.148 198.751 125.352 198.811C125.556 198.865 125.745 198.943 125.919 199.045L125.712 200.242C125.67 200.392 125.577 200.467 125.433 200.467C125.349 200.467 125.22 200.44 125.046 200.386C124.872 200.326 124.629 200.296 124.317 200.296C123.759 200.296 123.291 200.458 122.913 200.782C122.541 201.106 122.229 201.577 121.977 202.195V208H120.375ZM127.634 208V198.883H128.588C128.816 198.883 128.96 198.994 129.02 199.216L129.146 200.206C129.542 199.768 129.983 199.414 130.469 199.144C130.961 198.874 131.528 198.739 132.17 198.739C132.668 198.739 133.106 198.823 133.484 198.991C133.868 199.153 134.186 199.387 134.438 199.693C134.696 199.993 134.891 200.356 135.023 200.782C135.155 201.208 135.221 201.679 135.221 202.195V208H133.619V202.195C133.619 201.505 133.46 200.971 133.142 200.593C132.83 200.209 132.35 200.017 131.702 200.017C131.228 200.017 130.784 200.131 130.37 200.359C129.962 200.587 129.584 200.896 129.236 201.286V208H127.634ZM144.332 208H143.621C143.465 208 143.339 207.976 143.243 207.928C143.147 207.88 143.084 207.778 143.054 207.622L142.874 206.776C142.634 206.992 142.4 207.187 142.172 207.361C141.944 207.529 141.704 207.673 141.452 207.793C141.2 207.907 140.93 207.994 140.642 208.054C140.36 208.114 140.045 208.144 139.697 208.144C139.343 208.144 139.01 208.096 138.698 208C138.392 207.898 138.125 207.748 137.897 207.55C137.669 207.352 137.486 207.103 137.348 206.803C137.216 206.497 137.15 206.137 137.15 205.723C137.15 205.363 137.249 205.018 137.447 204.688C137.645 204.352 137.963 204.055 138.401 203.797C138.845 203.539 139.424 203.329 140.138 203.167C140.852 202.999 141.725 202.903 142.757 202.879V202.168C142.757 201.46 142.604 200.926 142.298 200.566C141.998 200.2 141.551 200.017 140.957 200.017C140.567 200.017 140.237 200.068 139.967 200.17C139.703 200.266 139.472 200.377 139.274 200.503C139.082 200.623 138.914 200.734 138.77 200.836C138.632 200.932 138.494 200.98 138.356 200.98C138.248 200.98 138.152 200.953 138.068 200.899C137.99 200.839 137.927 200.767 137.879 200.683L137.591 200.17C138.095 199.684 138.638 199.321 139.22 199.081C139.802 198.841 140.447 198.721 141.155 198.721C141.665 198.721 142.118 198.805 142.514 198.973C142.91 199.141 143.243 199.375 143.513 199.675C143.783 199.975 143.987 200.338 144.125 200.764C144.263 201.19 144.332 201.658 144.332 202.168V208ZM140.174 207.019C140.456 207.019 140.714 206.992 140.948 206.938C141.182 206.878 141.401 206.797 141.605 206.695C141.815 206.587 142.013 206.458 142.199 206.308C142.391 206.158 142.577 205.987 142.757 205.795V203.896C142.019 203.92 141.392 203.98 140.876 204.076C140.36 204.166 139.94 204.286 139.616 204.436C139.292 204.586 139.055 204.763 138.905 204.967C138.761 205.171 138.689 205.399 138.689 205.651C138.689 205.891 138.728 206.098 138.806 206.272C138.884 206.446 138.989 206.59 139.121 206.704C139.253 206.812 139.409 206.893 139.589 206.947C139.769 206.995 139.964 207.019 140.174 207.019ZM146.759 208V198.883H147.677C147.851 198.883 147.971 198.916 148.037 198.982C148.103 199.048 148.148 199.162 148.172 199.324L148.28 200.746C148.592 200.11 148.976 199.615 149.432 199.261C149.894 198.901 150.434 198.721 151.052 198.721C151.304 198.721 151.532 198.751 151.736 198.811C151.94 198.865 152.129 198.943 152.303 199.045L152.096 200.242C152.054 200.392 151.961 200.467 151.817 200.467C151.733 200.467 151.604 200.44 151.43 200.386C151.256 200.326 151.013 200.296 150.701 200.296C150.143 200.296 149.675 200.458 149.297 200.782C148.925 201.106 148.613 201.577 148.361 202.195V208H146.759ZM157.628 198.739C158.174 198.739 158.678 198.832 159.14 199.018C159.602 199.198 160.001 199.462 160.337 199.81C160.673 200.152 160.934 200.578 161.12 201.088C161.312 201.592 161.408 202.168 161.408 202.816C161.408 203.068 161.381 203.236 161.327 203.32C161.273 203.404 161.171 203.446 161.021 203.446H154.955C154.967 204.022 155.045 204.523 155.189 204.949C155.333 205.375 155.531 205.732 155.783 206.02C156.035 206.302 156.335 206.515 156.683 206.659C157.031 206.797 157.421 206.866 157.853 206.866C158.255 206.866 158.6 206.821 158.888 206.731C159.182 206.635 159.434 206.533 159.644 206.425C159.854 206.317 160.028 206.218 160.166 206.128C160.31 206.032 160.433 205.984 160.535 205.984C160.667 205.984 160.769 206.035 160.841 206.137L161.291 206.722C161.093 206.962 160.856 207.172 160.58 207.352C160.304 207.526 160.007 207.67 159.689 207.784C159.377 207.898 159.053 207.982 158.717 208.036C158.381 208.096 158.048 208.126 157.718 208.126C157.088 208.126 156.506 208.021 155.972 207.811C155.444 207.595 154.985 207.283 154.595 206.875C154.211 206.461 153.911 205.951 153.695 205.345C153.479 204.739 153.371 204.043 153.371 203.257C153.371 202.621 153.467 202.027 153.659 201.475C153.857 200.923 154.139 200.446 154.505 200.044C154.871 199.636 155.318 199.318 155.846 199.09C156.374 198.856 156.968 198.739 157.628 198.739ZM157.664 199.918C156.89 199.918 156.281 200.143 155.837 200.593C155.393 201.037 155.117 201.655 155.009 202.447H159.968C159.968 202.075 159.917 201.736 159.815 201.43C159.713 201.118 159.563 200.851 159.365 200.629C159.167 200.401 158.924 200.227 158.636 200.107C158.354 199.981 158.03 199.918 157.664 199.918ZM163.459 208V198.883H164.413C164.641 198.883 164.785 198.994 164.845 199.216L164.962 200.152C165.298 199.738 165.673 199.399 166.087 199.135C166.507 198.871 166.993 198.739 167.545 198.739C168.163 198.739 168.661 198.91 169.039 199.252C169.423 199.594 169.699 200.056 169.867 200.638C169.993 200.308 170.158 200.023 170.362 199.783C170.572 199.543 170.806 199.345 171.064 199.189C171.322 199.033 171.595 198.919 171.883 198.847C172.177 198.775 172.474 198.739 172.774 198.739C173.254 198.739 173.68 198.817 174.052 198.973C174.43 199.123 174.748 199.345 175.006 199.639C175.27 199.933 175.471 200.296 175.609 200.728C175.747 201.154 175.816 201.643 175.816 202.195V208H174.214V202.195C174.214 201.481 174.058 200.941 173.746 200.575C173.434 200.203 172.981 200.017 172.387 200.017C172.123 200.017 171.871 200.065 171.631 200.161C171.397 200.251 171.19 200.386 171.01 200.566C170.83 200.746 170.686 200.974 170.578 201.25C170.476 201.52 170.425 201.835 170.425 202.195V208H168.823V202.195C168.823 201.463 168.676 200.917 168.382 200.557C168.088 200.197 167.659 200.017 167.095 200.017C166.699 200.017 166.33 200.125 165.988 200.341C165.652 200.551 165.343 200.839 165.061 201.205V208H163.459ZM181.932 198.739C182.598 198.739 183.198 198.85 183.732 199.072C184.272 199.294 184.728 199.609 185.1 200.017C185.478 200.425 185.766 200.92 185.964 201.502C186.168 202.078 186.27 202.723 186.27 203.437C186.27 204.157 186.168 204.805 185.964 205.381C185.766 205.957 185.478 206.449 185.1 206.857C184.728 207.265 184.272 207.58 183.732 207.802C183.198 208.018 182.598 208.126 181.932 208.126C181.266 208.126 180.663 208.018 180.123 207.802C179.589 207.58 179.133 207.265 178.755 206.857C178.377 206.449 178.086 205.957 177.882 205.381C177.678 204.805 177.576 204.157 177.576 203.437C177.576 202.723 177.678 202.078 177.882 201.502C178.086 200.92 178.377 200.425 178.755 200.017C179.133 199.609 179.589 199.294 180.123 199.072C180.663 198.85 181.266 198.739 181.932 198.739ZM181.932 206.875C182.832 206.875 183.504 206.575 183.948 205.975C184.392 205.369 184.614 204.526 184.614 203.446C184.614 202.36 184.392 201.514 183.948 200.908C183.504 200.302 182.832 199.999 181.932 199.999C181.476 199.999 181.08 200.077 180.744 200.233C180.408 200.389 180.126 200.614 179.898 200.908C179.676 201.202 179.508 201.565 179.394 201.997C179.286 202.423 179.232 202.906 179.232 203.446C179.232 203.986 179.286 204.469 179.394 204.895C179.508 205.321 179.676 205.681 179.898 205.975C180.126 206.263 180.408 206.485 180.744 206.641C181.08 206.797 181.476 206.875 181.932 206.875ZM193.464 200.386C193.392 200.518 193.281 200.584 193.131 200.584C193.041 200.584 192.939 200.551 192.825 200.485C192.711 200.419 192.57 200.347 192.402 200.269C192.24 200.185 192.045 200.11 191.817 200.044C191.589 199.972 191.319 199.936 191.007 199.936C190.737 199.936 190.494 199.972 190.278 200.044C190.062 200.11 189.876 200.203 189.72 200.323C189.57 200.443 189.453 200.584 189.369 200.746C189.291 200.902 189.252 201.073 189.252 201.259C189.252 201.493 189.318 201.688 189.45 201.844C189.588 202 189.768 202.135 189.99 202.249C190.212 202.363 190.464 202.465 190.746 202.555C191.028 202.639 191.316 202.732 191.61 202.834C191.91 202.93 192.201 203.038 192.483 203.158C192.765 203.278 193.017 203.428 193.239 203.608C193.461 203.788 193.638 204.01 193.77 204.274C193.908 204.532 193.977 204.844 193.977 205.21C193.977 205.63 193.902 206.02 193.752 206.38C193.602 206.734 193.38 207.043 193.086 207.307C192.792 207.565 192.432 207.769 192.006 207.919C191.58 208.069 191.088 208.144 190.53 208.144C189.894 208.144 189.318 208.042 188.802 207.838C188.286 207.628 187.848 207.361 187.488 207.037L187.866 206.425C187.914 206.347 187.971 206.287 188.037 206.245C188.103 206.203 188.19 206.182 188.298 206.182C188.406 206.182 188.52 206.224 188.64 206.308C188.76 206.392 188.904 206.485 189.072 206.587C189.246 206.689 189.453 206.782 189.693 206.866C189.939 206.95 190.245 206.992 190.611 206.992C190.923 206.992 191.196 206.953 191.43 206.875C191.664 206.791 191.859 206.68 192.015 206.542C192.171 206.404 192.285 206.245 192.357 206.065C192.435 205.885 192.474 205.693 192.474 205.489C192.474 205.237 192.405 205.03 192.267 204.868C192.135 204.7 191.958 204.559 191.736 204.445C191.514 204.325 191.259 204.223 190.971 204.139C190.689 204.049 190.398 203.956 190.098 203.86C189.804 203.764 189.513 203.656 189.225 203.536C188.943 203.41 188.691 203.254 188.469 203.068C188.247 202.882 188.067 202.654 187.929 202.384C187.797 202.108 187.731 201.775 187.731 201.385C187.731 201.037 187.803 200.704 187.947 200.386C188.091 200.062 188.301 199.78 188.577 199.54C188.853 199.294 189.192 199.099 189.594 198.955C189.996 198.811 190.455 198.739 190.971 198.739C191.571 198.739 192.108 198.835 192.582 199.027C193.062 199.213 193.476 199.471 193.824 199.801L193.464 200.386ZM203.138 198.739C203.684 198.739 204.188 198.832 204.65 199.018C205.112 199.198 205.511 199.462 205.847 199.81C206.183 200.152 206.444 200.578 206.63 201.088C206.822 201.592 206.918 202.168 206.918 202.816C206.918 203.068 206.891 203.236 206.837 203.32C206.783 203.404 206.681 203.446 206.531 203.446H200.465C200.477 204.022 200.555 204.523 200.699 204.949C200.843 205.375 201.041 205.732 201.293 206.02C201.545 206.302 201.845 206.515 202.193 206.659C202.541 206.797 202.931 206.866 203.363 206.866C203.765 206.866 204.11 206.821 204.398 206.731C204.692 206.635 204.944 206.533 205.154 206.425C205.364 206.317 205.538 206.218 205.676 206.128C205.82 206.032 205.943 205.984 206.045 205.984C206.177 205.984 206.279 206.035 206.351 206.137L206.801 206.722C206.603 206.962 206.366 207.172 206.09 207.352C205.814 207.526 205.517 207.67 205.199 207.784C204.887 207.898 204.563 207.982 204.227 208.036C203.891 208.096 203.558 208.126 203.228 208.126C202.598 208.126 202.016 208.021 201.482 207.811C200.954 207.595 200.495 207.283 200.105 206.875C199.721 206.461 199.421 205.951 199.205 205.345C198.989 204.739 198.881 204.043 198.881 203.257C198.881 202.621 198.977 202.027 199.169 201.475C199.367 200.923 199.649 200.446 200.015 200.044C200.381 199.636 200.828 199.318 201.356 199.09C201.884 198.856 202.478 198.739 203.138 198.739ZM203.174 199.918C202.4 199.918 201.791 200.143 201.347 200.593C200.903 201.037 200.627 201.655 200.519 202.447H205.478C205.478 202.075 205.427 201.736 205.325 201.43C205.223 201.118 205.073 200.851 204.875 200.629C204.677 200.401 204.434 200.227 204.146 200.107C203.864 199.981 203.54 199.918 203.174 199.918ZM208.968 208V198.883H209.922C210.15 198.883 210.294 198.994 210.354 199.216L210.471 200.152C210.807 199.738 211.182 199.399 211.596 199.135C212.016 198.871 212.502 198.739 213.054 198.739C213.672 198.739 214.17 198.91 214.548 199.252C214.932 199.594 215.208 200.056 215.376 200.638C215.502 200.308 215.667 200.023 215.871 199.783C216.081 199.543 216.315 199.345 216.573 199.189C216.831 199.033 217.104 198.919 217.392 198.847C217.686 198.775 217.983 198.739 218.283 198.739C218.763 198.739 219.189 198.817 219.561 198.973C219.939 199.123 220.257 199.345 220.515 199.639C220.779 199.933 220.98 200.296 221.118 200.728C221.256 201.154 221.325 201.643 221.325 202.195V208H219.723V202.195C219.723 201.481 219.567 200.941 219.255 200.575C218.943 200.203 218.49 200.017 217.896 200.017C217.632 200.017 217.38 200.065 217.14 200.161C216.906 200.251 216.699 200.386 216.519 200.566C216.339 200.746 216.195 200.974 216.087 201.25C215.985 201.52 215.934 201.835 215.934 202.195V208H214.332V202.195C214.332 201.463 214.185 200.917 213.891 200.557C213.597 200.197 213.168 200.017 212.604 200.017C212.208 200.017 211.839 200.125 211.497 200.341C211.161 200.551 210.852 200.839 210.57 201.205V208H208.968ZM227.286 208V194.743H228.897V200.197C229.275 199.759 229.707 199.408 230.193 199.144C230.685 198.874 231.246 198.739 231.876 198.739C232.404 198.739 232.881 198.838 233.307 199.036C233.733 199.234 234.096 199.531 234.396 199.927C234.696 200.317 234.927 200.803 235.089 201.385C235.251 201.961 235.332 202.627 235.332 203.383C235.332 204.055 235.242 204.682 235.062 205.264C234.882 205.84 234.621 206.341 234.279 206.767C233.943 207.187 233.529 207.52 233.037 207.766C232.551 208.006 232.002 208.126 231.39 208.126C230.802 208.126 230.301 208.012 229.887 207.784C229.479 207.556 229.122 207.238 228.816 206.83L228.735 207.658C228.687 207.886 228.549 208 228.321 208H227.286ZM231.354 200.017C230.832 200.017 230.373 200.137 229.977 200.377C229.587 200.617 229.227 200.956 228.897 201.394V205.804C229.185 206.2 229.503 206.479 229.851 206.641C230.205 206.803 230.598 206.884 231.03 206.884C231.882 206.884 232.536 206.581 232.992 205.975C233.448 205.369 233.676 204.505 233.676 203.383C233.676 202.789 233.622 202.279 233.514 201.853C233.412 201.427 233.262 201.079 233.064 200.809C232.866 200.533 232.623 200.332 232.335 200.206C232.047 200.08 231.72 200.017 231.354 200.017ZM237.287 208V198.883H238.205C238.379 198.883 238.499 198.916 238.565 198.982C238.631 199.048 238.676 199.162 238.7 199.324L238.808 200.746C239.12 200.11 239.504 199.615 239.96 199.261C240.422 198.901 240.962 198.721 241.58 198.721C241.832 198.721 242.06 198.751 242.264 198.811C242.468 198.865 242.657 198.943 242.831 199.045L242.624 200.242C242.582 200.392 242.489 200.467 242.345 200.467C242.261 200.467 242.132 200.44 241.958 200.386C241.784 200.326 241.541 200.296 241.229 200.296C240.671 200.296 240.203 200.458 239.825 200.782C239.453 201.106 239.141 201.577 238.889 202.195V208H237.287ZM248.155 198.739C248.701 198.739 249.205 198.832 249.667 199.018C250.129 199.198 250.528 199.462 250.864 199.81C251.2 200.152 251.461 200.578 251.647 201.088C251.839 201.592 251.935 202.168 251.935 202.816C251.935 203.068 251.908 203.236 251.854 203.32C251.8 203.404 251.698 203.446 251.548 203.446H245.482C245.494 204.022 245.572 204.523 245.716 204.949C245.86 205.375 246.058 205.732 246.31 206.02C246.562 206.302 246.862 206.515 247.21 206.659C247.558 206.797 247.948 206.866 248.38 206.866C248.782 206.866 249.127 206.821 249.415 206.731C249.709 206.635 249.961 206.533 250.171 206.425C250.381 206.317 250.555 206.218 250.693 206.128C250.837 206.032 250.96 205.984 251.062 205.984C251.194 205.984 251.296 206.035 251.368 206.137L251.818 206.722C251.62 206.962 251.383 207.172 251.107 207.352C250.831 207.526 250.534 207.67 250.216 207.784C249.904 207.898 249.58 207.982 249.244 208.036C248.908 208.096 248.575 208.126 248.245 208.126C247.615 208.126 247.033 208.021 246.499 207.811C245.971 207.595 245.512 207.283 245.122 206.875C244.738 206.461 244.438 205.951 244.222 205.345C244.006 204.739 243.898 204.043 243.898 203.257C243.898 202.621 243.994 202.027 244.186 201.475C244.384 200.923 244.666 200.446 245.032 200.044C245.398 199.636 245.845 199.318 246.373 199.09C246.901 198.856 247.495 198.739 248.155 198.739ZM248.191 199.918C247.417 199.918 246.808 200.143 246.364 200.593C245.92 201.037 245.644 201.655 245.536 202.447H250.495C250.495 202.075 250.444 201.736 250.342 201.43C250.24 201.118 250.09 200.851 249.892 200.629C249.694 200.401 249.451 200.227 249.163 200.107C248.881 199.981 248.557 199.918 248.191 199.918ZM252.605 198.883H253.919C254.045 198.883 254.15 198.916 254.234 198.982C254.318 199.048 254.378 199.126 254.414 199.216L256.727 205.084C256.811 205.3 256.877 205.516 256.925 205.732C256.973 205.948 257.018 206.161 257.06 206.371C257.108 206.161 257.159 205.948 257.213 205.732C257.267 205.516 257.336 205.3 257.42 205.084L259.76 199.216C259.796 199.12 259.853 199.042 259.931 198.982C260.015 198.916 260.117 198.883 260.237 198.883H261.488L257.771 208H256.322L252.605 198.883ZM266.349 198.739C266.895 198.739 267.399 198.832 267.861 199.018C268.323 199.198 268.722 199.462 269.058 199.81C269.394 200.152 269.655 200.578 269.841 201.088C270.033 201.592 270.129 202.168 270.129 202.816C270.129 203.068 270.102 203.236 270.048 203.32C269.994 203.404 269.892 203.446 269.742 203.446H263.676C263.688 204.022 263.766 204.523 263.91 204.949C264.054 205.375 264.252 205.732 264.504 206.02C264.756 206.302 265.056 206.515 265.404 206.659C265.752 206.797 266.142 206.866 266.574 206.866C266.976 206.866 267.321 206.821 267.609 206.731C267.903 206.635 268.155 206.533 268.365 206.425C268.575 206.317 268.749 206.218 268.887 206.128C269.031 206.032 269.154 205.984 269.256 205.984C269.388 205.984 269.49 206.035 269.562 206.137L270.012 206.722C269.814 206.962 269.577 207.172 269.301 207.352C269.025 207.526 268.728 207.67 268.41 207.784C268.098 207.898 267.774 207.982 267.438 208.036C267.102 208.096 266.769 208.126 266.439 208.126C265.809 208.126 265.227 208.021 264.693 207.811C264.165 207.595 263.706 207.283 263.316 206.875C262.932 206.461 262.632 205.951 262.416 205.345C262.2 204.739 262.092 204.043 262.092 203.257C262.092 202.621 262.188 202.027 262.38 201.475C262.578 200.923 262.86 200.446 263.226 200.044C263.592 199.636 264.039 199.318 264.567 199.09C265.095 198.856 265.689 198.739 266.349 198.739ZM266.385 199.918C265.611 199.918 265.002 200.143 264.558 200.593C264.114 201.037 263.838 201.655 263.73 202.447H268.689C268.689 202.075 268.638 201.736 268.536 201.43C268.434 201.118 268.284 200.851 268.086 200.629C267.888 200.401 267.645 200.227 267.357 200.107C267.075 199.981 266.751 199.918 266.385 199.918ZM271.657 207.01C271.657 206.854 271.684 206.707 271.738 206.569C271.798 206.431 271.876 206.311 271.972 206.209C272.074 206.107 272.194 206.026 272.332 205.966C272.47 205.906 272.617 205.876 272.773 205.876C272.929 205.876 273.076 205.906 273.214 205.966C273.352 206.026 273.472 206.107 273.574 206.209C273.676 206.311 273.754 206.431 273.808 206.569C273.868 206.707 273.898 206.854 273.898 207.01C273.898 207.172 273.868 207.322 273.808 207.46C273.754 207.592 273.676 207.709 273.574 207.811C273.472 207.913 273.352 207.991 273.214 208.045C273.076 208.105 272.929 208.135 272.773 208.135C272.617 208.135 272.47 208.105 272.332 208.045C272.194 207.991 272.074 207.913 271.972 207.811C271.876 207.709 271.798 207.592 271.738 207.46C271.684 207.322 271.657 207.172 271.657 207.01Z" fill="#828282"></path></svg> 